<?xml version="1.0" standalone="no"?>
<!DOCTYPE svg PUBLIC "-//W3C//DTD SVG 20010904//EN"
 "http://www.w3.org/TR/2001/REC-SVG-20010904/DTD/svg10.dtd">
<svg version="1.0" xmlns="http://www.w3.org/2000/svg"
 width="367.000000pt" height="133.000000pt" viewBox="0 0 367.000000 133.000000"
 preserveAspectRatio="xMidYMid meet">

<g transform="translate(0.000000,133.000000) scale(0.100000,-0.100000)"
fill="#000000" stroke="none">
<path d="M125 1311 c-22 -10 -52 -31 -67 -47 -58 -63 -58 -58 -58 -601 0 -463
2 -501 19 -538 23 -49 64 -89 113 -109 33 -14 220 -16 1707 -16 l1669 0 53 28
c43 22 59 38 81 81 l28 53 0 503 0 503 -28 53 c-22 43 -38 59 -81 81 l-53 28
-1672 0 c-1605 0 -1673 -1 -1711 -19z m1125 -646 l0 -625 -527 0 c-316 0 -542
4 -563 10 -45 12 -97 65 -110 111 -14 48 -13 979 1 1016 14 37 57 82 94 99 24
10 141 13 568 14 l537 0 0 -625z m700 -5 l0 -189 118 -3 117 -3 3 -27 3 -28
-155 0 -156 0 0 220 0 220 35 0 35 0 0 -190z m360 30 l0 -160 28 -31 c35 -39
102 -50 151 -24 51 26 61 63 61 230 l0 145 30 0 30 0 0 -155 c0 -173 -7 -204
-59 -248 -88 -74 -229 -53 -285 43 -18 31 -21 55 -24 198 l-4 162 36 0 36 0 0
-160z m707 -30 c47 -102 91 -200 98 -217 l14 -33 -34 0 c-31 0 -35 4 -59 55
l-25 55 -114 0 -115 0 -22 -55 c-21 -52 -24 -55 -57 -55 -19 0 -33 4 -31 9 2
5 46 104 98 220 l95 212 34 -3 c35 -3 35 -3 118 -188z"/>
<path d="M1033 1166 c-42 -19 -66 -58 -66 -107 0 -137 198 -154 228 -20 19 86
-80 163 -162 127z"/>
<path d="M575 1047 c-114 -38 -200 -113 -249 -217 -28 -59 -31 -74 -31 -165 0
-91 3 -106 31 -165 39 -83 111 -155 194 -194 59 -28 74 -31 165 -31 93 0 105
2 167 33 83 41 149 107 191 191 30 61 32 73 32 166 0 93 -2 105 -32 165 -40
83 -110 152 -192 193 -54 26 -77 31 -150 34 -52 2 -102 -2 -126 -10z m332
-119 c33 -17 54 -54 55 -99 1 -50 -24 -87 -70 -106 -32 -13 -42 -14 -77 -2
-53 19 -89 71 -81 119 14 87 93 127 173 88z m-457 -313 l0 -114 62 -3 c38 -2
63 -8 66 -15 3 -10 -17 -13 -77 -13 l-81 0 0 130 c0 109 2 130 15 130 12 0 15
-19 15 -115z m484 29 c12 -11 16 -35 16 -85 0 -53 4 -71 15 -75 8 -4 12 -10 9
-15 -7 -12 -42 -11 -46 1 -2 7 -14 6 -34 -1 -43 -17 -82 -5 -90 28 -11 44 12
67 79 78 32 5 38 10 35 28 -4 28 -64 38 -74 13 -8 -20 -34 -21 -34 -2 0 39 93
62 124 30z m-292 -71 l3 -78 31 -3 c38 -4 54 26 54 103 0 42 4 55 15 55 12 0
15 -17 15 -90 0 -86 -1 -90 -22 -90 -13 1 -37 -2 -54 -6 -18 -3 -41 -1 -53 5
-19 11 -21 20 -21 96 0 68 3 85 15 85 11 0 15 -18 17 -77z"/>
<path d="M882 549 c-41 -8 -57 -22 -49 -43 8 -20 60 -21 77 -2 6 8 10 23 8 33
-2 16 -9 18 -36 12z"/>
<path d="M2865 708 c-15 -35 -34 -78 -41 -95 l-14 -33 89 0 89 0 -41 95 c-23
52 -45 95 -48 95 -4 0 -19 -28 -34 -62z"/>
</g>
</svg>
